<?xml version="1.0" standalone="no"?>
<!DOCTYPE svg PUBLIC "-//W3C//DTD SVG 20010904//EN"
 "http://www.w3.org/TR/2001/REC-SVG-20010904/DTD/svg10.dtd">
<svg version="1.0" xmlns="http://www.w3.org/2000/svg"
 width="540.000000pt" height="471.000000pt" viewBox="0 0 540.000000 471.000000"
 preserveAspectRatio="xMidYMid meet">

<g transform="translate(0.000000,471.000000) scale(0.100000,-0.100000)"
fill="#000000" stroke="none">
<path d="M2495 4603 c-16 -2 -88 -10 -160 -19 -156 -19 -568 -110 -515 -114 8
-1 -28 -16 -80 -35 -137 -50 -418 -192 -540 -273 -232 -155 -415 -325 -590
-551 -140 -180 -232 -336 -312 -526 -46 -110 -49 -95 -7 29 85 248 254 524
449 731 l65 69 -62 -53 c-35 -29 -99 -94 -142 -145 -315 -366 -482 -802 -498
-1303 -10 -309 37 -552 169 -863 133 -313 413 -663 712 -889 273 -206 693
-405 1001 -474 39 -8 102 -22 140 -31 283 -63 692 -71 1030 -20 858 128 1594
631 1937 1324 71 144 148 353 174 475 45 213 52 545 16 745 -78 433 -279 814
-599 1136 -177 179 -372 323 -613 455 -63 35 -118 68 -122 74 -4 5 -8 7 -8 3
0 -4 -35 8 -79 26 -101 44 -322 119 -430 146 -143 36 -368 70 -535 80 -155 9
-338 11 -401 3z m670 -152 c243 -37 431 -86 635 -165 546 -212 992 -611 1221
-1091 185 -387 228 -839 120 -1257 -93 -359 -272 -662 -565 -954 -350 -349
-767 -573 -1281 -690 -342 -77 -753 -84 -1115 -18 -739 135 -1362 543 -1696
1109 -213 364 -302 785 -249 1188 57 436 266 833 617 1173 424 411 979 657
1628 724 143 15 537 4 685 -19z m-2908 -1483 c-3 -8 -6 -5 -6 6 -1 11 2 17 5
13 3 -3 4 -12 1 -19z"/>
<path d="M2501 4389 c-1091 -83 -1923 -732 -2109 -1644 -43 -207 -52 -479 -22
-656 17 -108 21 -126 45 -215 143 -544 566 -1030 1140 -1309 252 -123 467
-189 774 -237 200 -31 567 -31 769 0 642 100 1177 394 1548 852 198 245 324
513 391 830 23 110 26 149 27 320 0 213 -9 294 -54 472 -141 554 -551 1043
-1115 1326 -66 33 -147 71 -180 85 -365 149 -780 209 -1214 176z m429 -160
c425 -40 810 -178 1135 -410 129 -91 310 -260 400 -374 22 -27 43 -52 46 -55
21 -19 157 -243 164 -270 2 -5 39 -87 87 -189 36 -76 70 -172 64 -179 -3 -2
-8 8 -12 22 -3 15 -8 25 -10 23 -2 -2 5 -46 17 -98 15 -69 22 -144 26 -284 6
-232 -12 -361 -82 -572 -40 -118 -141 -335 -175 -375 -6 -7 -25 -35 -42 -63
-86 -135 -277 -331 -438 -451 -111 -82 -127 -92 -220 -146 -257 -148 -542
-242 -875 -290 -131 -19 -502 -16 -641 5 -125 19 -255 47 -359 79 -38 12 -72
22 -75 23 -3 0 -52 19 -110 42 -328 130 -615 332 -830 584 -34 41 -72 82 -84
92 -11 10 -14 15 -6 11 10 -5 9 -1 -3 12 -32 34 -101 147 -154 254 -99 198
-155 401 -175 635 -22 267 32 563 151 819 184 398 527 732 966 941 167 79 333
133 575 185 167 36 454 48 660 29z m-2438 -1316 c-3 -16 -7 -22 -10 -15 -4 13
4 42 11 42 2 0 2 -12 -1 -27z m4367 -243 c13 -39 21 -76 19 -82 -3 -7 -12 15
-20 47 -9 33 -20 70 -23 83 -4 12 -5 22 -3 22 3 0 15 -32 27 -70z m-4452 18
c-3 -8 -6 -5 -6 6 -1 11 2 17 5 13 3 -3 4 -12 1 -19z m4501 -288 l-1 -45 -7
55 c-4 30 -10 80 -14 110 l-6 55 15 -65 c7 -36 13 -85 13 -110z m3 -345 l-10
-70 4 85 c3 47 6 130 7 185 l2 100 3 -115 c2 -63 -1 -146 -6 -185z m-4504 83
c-3 -8 -6 -5 -6 6 -1 11 2 17 5 13 3 -3 4 -12 1 -19z m4483 -241 c-14 -76 -61
-229 -67 -223 -3 3 4 33 15 68 12 35 29 103 38 153 10 49 20 83 22 76 2 -7 -1
-40 -8 -74z m-4436 8 c5 -22 4 -26 -4 -15 -5 8 -10 24 -10 34 0 26 6 18 14
-19z m4366 -262 c0 -5 -14 -35 -31 -68 -16 -33 -27 -51 -23 -40 27 83 40 115
47 115 4 0 7 -3 7 -7z m-4251 -63 c11 -24 11 -24 -3 -6 -9 11 -16 24 -16 30 0
12 5 7 19 -24z m55 -106 c3 -8 2 -12 -4 -9 -6 3 -10 10 -10 16 0 14 7 11 14
-7z m4064 -106 c-23 -40 -44 -75 -47 -78 -3 -3 -22 -29 -41 -57 -19 -29 -39
-53 -44 -53 -5 0 -1 10 8 23 31 42 103 152 127 194 13 24 27 43 31 43 4 0 -12
-33 -34 -72z m-3708 -110 c0 -3 12 -21 26 -38 15 -17 24 -34 20 -37 -3 -4 -7
-4 -9 -2 -71 96 -115 172 -69 119 17 -19 31 -38 32 -42z m3640 -73 c0 -2 -10
-9 -22 -15 -22 -11 -22 -10 -4 4 21 17 26 19 26 11z m-3563 -35 c3 -11 12 -20
19 -20 8 0 14 -4 14 -9 0 -5 16 -28 35 -51 46 -56 45 -65 -3 -15 -56 59 -96
115 -82 115 6 0 14 -9 17 -20z m3484 3 c-22 -42 -205 -229 -286 -293 -22 -17
-42 -35 -45 -39 -8 -12 -54 -41 -64 -41 -6 0 1 8 14 17 14 9 27 19 30 22 3 3
27 24 55 46 69 56 233 222 263 268 25 37 51 53 33 20z m-10 -66 c-10 -9 -11
-8 -5 6 3 10 9 15 12 12 3 -3 0 -11 -7 -18z m-3291 -137 c8 -9 40 -36 70 -60
61 -50 80 -66 130 -111 l35 -31 -33 23 c-65 47 -208 168 -242 205 -31 34 -31
36 -5 14 16 -14 36 -32 45 -40z m2890 -180 c0 -5 -10 -15 -22 -21 -23 -12 -23
-12 -4 10 21 23 26 26 26 11z m-2605 -45 l30 -25 -37 21 c-21 11 -38 23 -38
25 0 10 17 2 45 -21z m2532 -13 c-15 -10 -24 -22 -20 -27 5 -4 2 -5 -5 -1 -11
6 -10 12 4 27 9 10 24 19 33 19 10 0 6 -6 -12 -18z m-68 -40 c-38 -29 -109
-63 -109 -52 0 6 6 10 14 10 7 0 19 7 26 15 7 8 16 12 21 9 5 -3 9 -1 9 4 0 5
10 14 23 20 34 17 42 14 16 -6z m-2348 -15 c70 -38 139 -79 139 -84 0 -5 -150
75 -164 88 -14 13 -2 11 25 -4z m2184 -73 c-59 -31 -95 -45 -95 -39 0 6 122
65 135 65 6 0 -12 -12 -40 -26z m-1975 -34 c45 -24 28 -24 -25 0 -22 10 -33
19 -25 19 8 0 31 -8 50 -19z m1855 -20 c-3 -5 -16 -10 -28 -9 -20 1 -20 2 3 9
14 4 26 8 28 9 2 1 0 -3 -3 -9z m-1728 -36 c-7 -7 -37 7 -37 17 0 6 9 5 21 -1
11 -7 19 -14 16 -16z m1623 -8 c-60 -25 -135 -43 -110 -26 8 5 25 10 37 10 12
0 25 5 28 10 3 6 15 10 26 10 10 0 19 5 19 10 0 6 12 10 28 10 22 -1 17 -5
-28 -24z m-1510 -26 c18 -12 2 -12 -25 0 -13 6 -15 9 -5 9 8 0 22 -4 30 -9z
m70 -20 c13 -9 13 -10 0 -10 -8 0 -22 5 -30 10 -13 9 -13 10 0 10 8 0 22 -5
30 -10z m1295 0 c-11 -5 -27 -9 -35 -9 -9 0 -8 4 5 9 11 5 27 9 35 9 9 0 8 -4
-5 -9z m-1210 -20 l20 -9 -20 1 c-11 0 -31 4 -45 8 l-25 8 25 0 c14 0 34 -3
45 -8z m303 3 c-10 -2 -28 -2 -40 0 -13 2 -5 4 17 4 22 1 32 -1 23 -4z m412 3
c0 -8 -71 -12 -76 -4 -3 4 13 8 35 8 23 0 41 -2 41 -4z m375 -16 c-38 -10 -79
-18 -90 -18 -11 0 9 8 45 18 36 9 76 17 90 18 14 0 -6 -8 -45 -18z m-1038 -6
c-3 -3 -12 -4 -19 -1 -8 3 -5 6 6 6 11 1 17 -2 13 -5z m148 -24 c27 -7 27 -8
5 -8 -14 0 -38 4 -55 8 -27 7 -27 8 -5 8 14 0 39 -4 55 -8z m758 3 c-7 -2 -19
-2 -25 0 -7 3 -2 5 12 5 14 0 19 -2 13 -5z m-50 -10 c-7 -2 -21 -2 -30 0 -10
3 -4 5 12 5 17 0 24 -2 18 -5z m-590 -10 c-13 -2 -33 -2 -45 0 -13 2 -3 4 22
4 25 0 35 -2 23 -4z m462 -3 c-33 -4 -82 -8 -110 -7 l-50 0 60 7 c33 4 83 7
110 7 l50 0 -60 -7z m-342 -7 c-18 -2 -48 -2 -65 0 -18 2 -4 4 32 4 36 0 50
-2 33 -4z"/>
<path d="M2656 3979 c-34 -27 -26 -37 34 -45 46 -6 50 -9 50 -34 0 -19 -7 -30
-25 -38 -43 -20 -25 -62 26 -62 41 0 59 24 59 80 0 54 -3 57 -69 76 l-46 14
43 -5 c25 -3 52 0 65 7 22 12 22 12 -8 19 -60 13 -102 9 -129 -12z m94 -144
c0 -8 -6 -15 -14 -15 -17 0 -28 14 -19 24 12 12 33 6 33 -9z"/>
<path d="M1909 3974 c-8 -9 -33 -25 -57 -35 -34 -15 -43 -23 -40 -40 4 -32 33
-47 58 -31 11 6 33 12 49 12 16 0 35 7 42 16 11 14 10 19 -6 33 -12 9 -19 25
-17 39 4 26 -10 29 -29 6z m1 -59 c0 -8 -9 -15 -19 -15 -11 0 -27 -3 -37 -7
-12 -4 -15 -2 -12 8 2 7 15 16 29 20 37 11 39 10 39 -6z"/>
<path d="M2466 3974 c-9 -8 -16 -23 -16 -31 0 -12 -7 -9 -25 11 -26 28 -45 32
-76 16 -27 -15 -25 -58 2 -62 27 -4 36 -20 44 -81 6 -45 8 -48 33 -45 30 3 39
27 41 109 1 47 21 86 38 76 6 -4 16 -43 23 -87 11 -72 15 -80 35 -80 12 0 24
2 27 5 8 8 -20 156 -33 171 -15 19 -74 18 -93 -2z m-86 -40 c0 -17 -22 -14
-28 4 -2 7 3 12 12 12 9 0 16 -7 16 -16z"/>
<path d="M2898 3983 c-27 -7 -21 -20 8 -20 42 0 47 -14 35 -91 -15 -95 -15
-94 17 -90 26 3 28 7 39 78 9 62 9 79 -3 98 -8 12 -20 22 -27 22 -6 0 -21 2
-32 4 -11 2 -28 2 -37 -1z"/>
<path d="M3098 3953 c-19 -5 -43 -57 -34 -72 4 -6 -3 -24 -15 -40 -40 -55 -6
-85 112 -98 63 -6 61 -9 93 106 19 66 20 81 4 81 -27 0 -41 -20 -62 -86 -20
-61 -26 -69 -50 -72 -54 -7 -75 37 -28 62 23 12 25 15 10 21 -24 9 -23 25 1
25 55 0 72 47 26 68 -27 12 -29 13 -57 5z m53 -38 c-1 -15 -24 -12 -29 3 -3 9
2 13 12 10 10 -1 17 -7 17 -13z"/>
<path d="M2124 3916 c-59 -26 -82 -87 -45 -120 11 -10 27 -33 36 -52 9 -19 21
-34 28 -34 21 0 40 17 33 29 -4 6 2 24 13 40 12 16 21 35 21 43 0 17 -20 38
-35 38 -21 0 -48 -27 -41 -39 6 -9 11 -9 21 -1 19 16 27 -4 10 -26 -13 -18
-14 -18 -39 5 -14 14 -26 35 -26 48 0 30 40 55 81 51 31 -3 35 -8 60 -73 26
-68 41 -83 66 -67 10 6 7 24 -13 78 -15 38 -34 75 -42 82 -21 16 -89 15 -128
-2z"/>
<path d="M3333 3892 c-6 -4 -21 -28 -32 -52 -11 -25 -28 -57 -37 -72 -15 -22
-16 -29 -4 -43 8 -9 24 -15 39 -13 22 3 27 9 32 43 4 22 16 59 28 83 27 53 14
80 -26 54z m-25 -149 c-4 -22 -22 -20 -26 1 -2 10 3 16 13 16 10 0 15 -7 13
-17z"/>
<path d="M3689 3884 c-10 -12 -10 -20 -1 -34 13 -21 7 -30 -20 -30 -23 0 -23
-17 1 -29 40 -22 101 -24 141 -6 41 18 54 45 23 45 -10 0 -27 -7 -37 -15 -37
-28 -76 -14 -41 15 21 17 19 47 -4 60 -28 14 -46 13 -62 -6z m51 -25 c0 -5 -7
-9 -15 -9 -15 0 -20 12 -9 23 8 8 24 -1 24 -14z"/>
<path d="M1956 3854 c-15 -15 -14 -20 14 -72 16 -30 30 -59 30 -64 0 -4 -15
-8 -34 -8 -30 0 -39 6 -63 43 -23 33 -36 43 -61 45 -19 2 -40 -2 -48 -9 -33
-28 -2 -74 43 -63 16 4 23 0 28 -16 4 -12 2 -27 -4 -33 -18 -18 -13 -35 14
-53 23 -15 27 -15 51 1 19 12 25 23 21 41 -4 24 -4 24 59 18 60 -6 64 -5 64
14 0 20 -74 157 -90 167 -5 3 -16 -2 -24 -11z m-124 -106 c-9 -9 -15 -9 -24 0
-10 10 -10 15 2 22 9 6 19 5 24 0 7 -7 6 -14 -2 -22z m68 -98 c0 -5 -4 -10
-10 -10 -5 0 -10 5 -10 10 0 6 5 10 10 10 6 0 10 -4 10 -10z"/>
<path d="M3450 3850 c-23 -13 -84 -145 -77 -165 5 -11 16 -15 39 -13 30 3 33
6 34 38 0 19 10 55 23 78 29 57 20 86 -19 62z m-24 -141 c10 -17 -13 -36 -27
-22 -12 12 -4 33 11 33 5 0 12 -5 16 -11z"/>
<path d="M3571 3787 c-14 -6 -28 -24 -32 -39 -4 -15 -19 -42 -33 -61 -31 -41
-32 -54 -5 -62 22 -7 30 1 70 63 13 19 29 32 42 32 20 1 20 3 -8 25 l-30 25
25 0 c33 0 70 -26 70 -49 0 -10 -18 -45 -40 -77 -41 -61 -40 -81 2 -71 26 7
88 100 88 133 0 26 -34 63 -76 80 -40 17 -43 17 -73 1z"/>
<path d="M1683 3729 c-19 -19 -16 -30 25 -84 21 -28 41 -58 45 -68 5 -14 15
-17 39 -15 45 4 51 39 11 65 -15 10 -35 27 -43 38 -42 58 -65 76 -77 64z m127
-134 c0 -8 -6 -15 -14 -15 -17 0 -28 14 -19 24 12 12 33 6 33 -9z"/>
<path d="M3785 3660 c3 -5 15 -10 25 -10 10 0 32 -11 47 -24 l28 -25 -34 -34
c-28 -30 -38 -35 -65 -30 -42 7 -60 -13 -43 -47 9 -18 22 -26 48 -28 32 -3 41
3 82 48 27 29 47 61 47 74 0 23 -28 55 -67 75 -27 14 -76 15 -68 1z m8 -155
c1 -5 -6 -11 -15 -13 -11 -2 -18 3 -18 13 0 17 30 18 33 0z"/>
<path d="M1459 3569 c-15 -15 -20 -29 -15 -50 5 -27 4 -28 -18 -18 -27 13 -60
0 -76 -31 -14 -26 24 -54 52 -39 15 8 28 2 70 -36 52 -47 64 -50 81 -24 7 12
-2 33 -37 85 -74 111 -56 127 42 38 61 -55 97 -67 97 -32 0 24 -123 128 -152
128 -13 0 -32 -9 -44 -21z m-59 -115 c0 -17 -22 -14 -28 4 -2 7 3 12 12 12 9
0 16 -7 16 -16z"/>
<path d="M2585 3583 c-251 -32 -411 -78 -573 -164 -148 -78 -332 -216 -324
-243 2 -6 0 -8 -4 -3 -9 9 -46 -22 -39 -34 3 -4 0 -11 -6 -15 -8 -4 -9 -3 -5
4 4 7 5 12 3 12 -5 0 -137 -178 -137 -184 0 -3 -15 -31 -34 -63 -19 -32 -54
-114 -77 -183 l-43 -125 0 -190 c-1 -179 1 -195 27 -288 34 -118 62 -183 124
-284 69 -116 167 -231 206 -246 14 -5 34 9 84 61 140 144 361 441 347 464 -4
6 -3 8 4 5 10 -7 83 110 167 268 20 39 40 75 45 80 4 6 53 100 110 210 56 110
106 205 110 210 4 6 24 40 44 78 l37 67 -26 10 c-15 6 -32 10 -39 10 -7 0 -82
16 -167 37 -123 29 -175 36 -260 37 -98 1 -108 -1 -146 -26 -104 -69 -115
-179 -27 -272 l27 -29 -43 -38 c-25 -22 -49 -39 -54 -39 -16 0 -76 72 -100
120 -59 117 -10 250 118 325 59 35 180 76 239 82 49 5 171 -17 345 -63 30 -7
57 -13 60 -12 7 1 24 -4 70 -23 40 -16 91 -10 144 17 72 36 82 19 23 -42 l-48
-49 -33 -170 c-100 -505 -169 -1015 -137 -1015 26 0 63 27 63 46 0 22 13 47
91 180 25 44 57 99 71 124 45 81 178 311 194 336 9 13 12 29 8 35 -4 7 -3 9 3
6 16 -10 31 40 37 128 7 114 86 335 159 446 9 14 14 29 10 32 -3 4 -2 7 4 7 6
0 28 26 51 58 22 31 57 74 76 95 20 20 36 41 36 47 0 21 -154 83 -303 121
-154 40 -383 59 -512 42z"/>
<path d="M1225 3530 c-3 -5 -1 -18 5 -29 10 -20 5 -45 -13 -69 -8 -10 -14 -9
-28 4 -33 30 -88 -1 -73 -41 22 -56 154 12 154 79 0 53 -26 86 -45 56z m-52
-107 c9 -9 -13 -34 -24 -27 -14 8 -11 34 4 34 8 0 17 -3 20 -7z"/>
<path d="M4194 3435 c-9 -35 12 -57 50 -53 58 6 44 78 -15 78 -22 0 -30 -6
-35 -25z m64 -12 c5 -17 -26 -29 -40 -15 -6 6 -7 15 -3 22 9 14 37 9 43 -7z"/>
<path d="M4070 3442 c0 -5 11 -17 25 -26 17 -11 25 -26 25 -45 0 -23 -10 -35
-53 -65 -29 -20 -56 -36 -60 -36 -19 0 -3 30 33 59 55 44 54 92 -1 106 -32 8
-54 -15 -45 -48 4 -18 -1 -30 -20 -46 l-25 -22 18 -32 c11 -18 31 -38 47 -45
25 -13 31 -11 69 13 95 62 110 100 60 154 -29 30 -73 50 -73 33z m-20 -48 c0
-16 -26 -19 -35 -4 -3 6 -4 14 0 20 8 13 35 1 35 -16z"/>
<path d="M1277 3413 c-16 -15 -5 -42 28 -67 34 -27 45 -58 24 -71 -16 -10 -23
3 -11 18 18 21 1 29 -25 12 -20 -14 -29 -14 -59 -3 -34 12 -37 11 -60 -15 -13
-15 -21 -34 -18 -42 8 -21 40 -28 62 -14 15 9 26 7 60 -14 22 -15 45 -34 51
-44 9 -16 13 -15 46 17 46 45 79 96 71 115 -3 8 -39 37 -81 65 -84 55 -79 53
-88 43z m122 -154 c-12 -24 -33 -33 -54 -25 -14 5 -13 10 6 35 18 24 26 28 41
20 15 -8 16 -14 7 -30z m-197 -11 c-15 -15 -26 -4 -18 18 5 13 9 15 18 6 9 -9
9 -15 0 -24z"/>
<path d="M3386 3276 c-64 -68 -185 -319 -186 -384 0 -21 13 -8 101 100 95 117
133 182 149 252 9 41 8 52 -4 64 -13 14 -20 10 -60 -32z"/>
<path d="M3560 3284 c-67 -176 -126 -279 -261 -456 -48 -62 -91 -123 -98 -135
-7 -13 -11 -80 -11 -175 0 -197 13 -348 46 -522 7 -39 83 -267 104 -313 11
-24 20 -45 20 -48 0 -18 111 -235 120 -235 54 0 281 197 383 332 328 438 290
1011 -96 1415 -80 83 -173 163 -191 163 -4 0 -11 -12 -16 -26z"/>
<path d="M4240 3260 c11 -11 20 -24 20 -30 0 -5 -36 -30 -80 -56 -44 -25 -80
-49 -80 -54 0 -4 7 -13 15 -20 12 -10 29 -4 92 33 63 36 79 50 81 71 4 34 -22
76 -48 76 -20 0 -20 0 0 -20z"/>
<path d="M957 3199 c-41 -24 -61 -105 -31 -130 14 -12 20 -8 47 26 18 22 46
54 64 71 18 17 33 33 33 37 0 11 -93 8 -113 -4z m18 -64 c-28 -31 -35 -35 -35
-19 1 23 18 46 45 62 33 18 28 -2 -10 -43z"/>
<path d="M1082 3148 c-35 -46 -40 -74 -17 -104 14 -18 16 -18 48 20 28 33 37
38 60 32 20 -5 27 -13 27 -30 0 -13 7 -29 15 -36 34 -28 93 32 65 66 -12 14
-94 54 -111 54 -5 0 -27 -16 -49 -36 -43 -39 -57 -33 -15 6 25 23 33 54 17 64
-5 3 -23 -14 -40 -36z m176 -90 c-7 -19 -38 -22 -38 -4 0 10 9 16 21 16 12 0
19 -5 17 -12z"/>
<path d="M4463 3118 c-20 -26 -22 -50 -9 -81 19 -45 45 -65 95 -73 39 -6 43
-5 39 12 -2 10 -12 20 -23 22 -51 7 -65 14 -75 32 -9 17 -7 22 14 29 32 13 39
26 26 51 -12 22 -52 27 -67 8z m47 -23 c0 -8 -7 -15 -15 -15 -8 0 -15 7 -15
15 0 8 7 15 15 15 8 0 15 -7 15 -15z"/>
<path d="M4281 3106 c-7 -8 -36 -24 -66 -36 -54 -22 -70 -45 -40 -56 8 -4 40
4 69 16 34 13 63 19 76 15 20 -6 21 -4 15 24 -5 25 -4 30 8 25 22 -8 39 -52
28 -73 -5 -9 -42 -30 -80 -46 -73 -29 -89 -50 -48 -60 27 -7 135 37 155 62 37
50 -11 143 -73 143 -18 0 -38 -6 -44 -14z"/>
<path d="M987 2994 c-4 -4 -7 -15 -7 -25 0 -14 19 -24 85 -44 46 -14 87 -30
90 -35 3 -5 0 -20 -6 -34 -13 -28 -19 -28 -117 5 -38 13 -60 16 -77 9 -25 -9
-42 -50 -30 -69 8 -14 51 -14 74 1 23 14 107 -7 121 -31 11 -21 21 -10 48 56
25 58 28 96 10 110 -7 6 -45 20 -85 32 -40 12 -78 24 -86 27 -7 2 -16 1 -20
-2z m-12 -184 c-5 -8 -11 -8 -17 -2 -6 6 -7 16 -3 22 5 8 11 8 17 2 6 -6 7
-16 3 -22z"/>
<path d="M4355 2900 c-16 -12 -45 -27 -62 -35 -18 -8 -33 -18 -33 -23 0 -14
26 -33 33 -25 4 3 24 -2 45 -11 53 -24 87 -19 87 14 0 18 -6 26 -22 28 -24 3
-32 -13 -11 -20 7 -3 8 -7 3 -10 -6 -3 -21 -1 -35 4 l-25 9 28 25 c36 31 81
32 101 2 36 -50 18 -73 -75 -99 -86 -24 -94 -29 -77 -52 12 -16 18 -16 97 7
46 14 88 30 92 38 27 41 -2 128 -51 153 -39 20 -59 19 -95 -5z"/>
<path d="M933 2431 c-25 -16 -33 -28 -33 -50 0 -43 9 -60 41 -76 36 -19 84 -9
109 23 26 33 25 64 -3 90 -34 32 -76 37 -114 13z"/>
<path d="M2453 2322 c-172 -352 -354 -609 -565 -800 -27 -23 -48 -47 -48 -52
0 -26 261 -165 373 -199 18 -5 64 -19 102 -31 205 -61 517 -66 756 -11 90 21
210 62 215 75 3 7 -5 35 -17 62 -39 89 -119 327 -150 444 -46 175 -60 262 -65
420 -6 177 -9 196 -29 180 -8 -7 -15 -17 -15 -22 0 -5 -11 -24 -24 -41 -13
-18 -37 -57 -54 -88 -17 -32 -37 -68 -45 -80 -8 -13 -29 -50 -46 -82 -46 -85
-300 -500 -317 -517 -7 -7 -70 3 -91 15 -2 1 11 120 27 266 28 242 38 333 56
522 4 37 5 67 3 67 -2 0 -32 -58 -66 -128z"/>
<path d="M4404 2438 c-23 -11 -44 -48 -44 -78 0 -23 55 -70 81 -70 93 0 123
119 38 149 -38 13 -47 13 -75 -1z"/>
<path d="M1107 1969 c-9 -6 -15 -14 -13 -18 3 -4 -24 -32 -59 -61 -36 -28 -65
-56 -65 -61 0 -5 15 -9 33 -9 26 0 45 11 91 54 51 47 58 57 52 80 -7 28 -12
31 -39 15z"/>
<path d="M4467 1956 c-9 -23 19 -41 38 -26 12 10 13 16 4 26 -15 18 -35 18
-42 0z"/>
<path d="M920 1910 c0 -5 4 -10 9 -10 6 0 13 5 16 10 3 6 -1 10 -9 10 -9 0
-16 -4 -16 -10z"/>
<path d="M4303 1909 c-33 -10 -57 -38 -85 -100 l-16 -36 91 -28 c51 -15 96
-32 102 -36 14 -14 21 -11 33 16 15 33 15 35 -5 35 -34 0 -183 54 -183 67 0
25 47 46 87 38 51 -9 113 -42 113 -60 0 -8 5 -15 10 -15 13 0 13 31 0 64 -16
43 -91 71 -147 55z"/>
<path d="M1156 1801 c-3 -4 -41 -18 -86 -31 -78 -22 -89 -31 -71 -58 6 -11 29
-7 112 19 57 17 105 32 106 33 1 1 0 12 -4 24 -5 22 -46 32 -57 13z"/>
<path d="M4177 1713 c-14 -13 -6 -20 18 -15 14 2 22 8 19 13 -6 11 -28 12 -37
2z"/>
<path d="M1160 1654 c-47 -23 -89 -44 -94 -46 -5 -2 -1 -16 9 -32 10 -15 21
-23 24 -19 12 17 56 43 73 43 11 0 18 -8 18 -20 0 -23 4 -24 33 -9 l21 12 -22
8 c-12 5 -22 13 -22 18 0 10 56 41 75 41 17 0 37 -48 30 -71 -5 -14 -2 -17 9
-13 9 3 16 11 16 18 0 15 -69 116 -78 115 -4 -1 -45 -21 -92 -45z"/>
<path d="M4135 1648 c-17 -25 -20 -42 -5 -33 10 6 171 -71 181 -88 4 -5 15 2
24 17 10 15 16 28 14 29 -2 1 -48 23 -101 49 l-97 47 -16 -21z"/>
<path d="M4096 1585 c-3 -10 -2 -23 4 -29 15 -15 22 -2 12 24 -8 21 -9 22 -16
5z"/>
<path d="M1121 1507 c12 -26 49 -39 49 -17 0 6 -5 10 -12 10 -6 0 -20 8 -31
17 -18 17 -18 17 -6 -10z"/>
<path d="M1360 1522 c0 -4 -36 -32 -80 -61 -44 -30 -80 -57 -80 -61 0 -15 38
-41 45 -30 3 5 41 33 83 62 42 28 79 53 81 54 6 5 -30 44 -41 44 -4 0 -8 -3
-8 -8z"/>
<path d="M1427 1447 c10 -51 -98 -128 -151 -108 -36 14 -33 5 7 -19 41 -25 81
-25 122 0 38 24 59 66 50 103 -9 35 -34 57 -28 24z"/>
<path d="M3966 1435 c-10 -15 -12 -25 -5 -25 6 0 47 -25 91 -55 l81 -56 23 22
c26 25 31 41 10 33 -7 -3 -50 20 -96 50 -46 31 -84 56 -85 56 -2 0 -10 -11
-19 -25z"/>
<path d="M4204 1415 c0 -35 0 -35 20 -16 16 17 17 23 6 35 -19 24 -26 19 -26
-19z"/>
<path d="M1502 1338 c-31 -16 -37 -49 -17 -102 19 -49 11 -75 -24 -77 -11 0
-9 -3 7 -9 30 -13 71 7 78 37 4 13 -1 44 -11 69 -22 59 -15 78 28 70 l32 -6
-25 15 c-30 17 -38 17 -68 3z"/>
<path d="M1600 1269 c0 -18 2 -19 15 -9 15 12 12 30 -6 30 -5 0 -9 -10 -9 -21z"/>
<path d="M4020 1250 c0 -21 6 -25 38 -25 34 -1 39 4 20 23 -15 15 -58 16 -58
2z"/>
<path d="M1387 1243 c-12 -11 -8 -31 8 -37 11 -4 15 1 15 19 0 24 -10 32 -23
18z"/>
<path d="M1670 1233 c0 -5 -5 -37 -11 -73 -7 -46 -17 -73 -35 -91 l-26 -27 23
-16 c29 -20 39 -20 39 -2 0 8 14 26 30 39 17 14 26 28 21 31 -11 7 -2 86 11
102 5 8 0 17 -16 28 -28 18 -36 20 -36 9z"/>
<path d="M3733 1232 c-9 -5 -2 -12 20 -20 62 -22 112 -96 96 -141 l-9 -26 25
28 c29 33 33 81 9 116 -28 39 -109 64 -141 43z"/>
<path d="M3657 1180 c-27 -38 -21 -75 17 -117 29 -33 39 -37 84 -37 32 -1 56
4 64 13 11 12 10 13 -5 7 -46 -16 -126 56 -137 124 l-5 35 -18 -25z"/>
<path d="M3953 1184 c-8 -22 18 -37 36 -20 7 8 10 19 7 25 -10 16 -36 13 -43
-5z"/>
<path d="M1816 1143 c-11 -11 -6 -23 9 -23 8 0 15 4 15 9 0 13 -16 22 -24 14z"/>
<path d="M3545 1111 c-3 -6 3 -15 14 -20 28 -16 33 -14 21 9 -12 22 -25 26
-35 11z"/>
<path d="M1890 1097 c0 -7 -20 -46 -45 -86 -25 -41 -44 -75 -43 -76 23 -19 74
-32 64 -17 -7 12 25 72 40 72 7 0 18 -8 23 -17 9 -16 12 -16 21 -3 15 23 12
30 -15 30 -32 0 -32 13 0 54 l25 33 -25 11 c-33 15 -45 15 -45 -1z"/>
<path d="M3458 1083 c-68 -42 -63 -145 9 -182 30 -15 83 -13 113 4 25 14 25
14 -10 9 -43 -7 -85 22 -106 72 -20 47 -18 62 12 89 31 29 22 32 -18 8z"/>
<path d="M2000 1062 c0 -4 7 -16 15 -26 11 -15 18 -17 26 -9 6 6 9 16 5 21 -7
11 -46 23 -46 14z"/>
<path d="M2190 971 c0 -10 -11 -53 -25 -95 -14 -42 -25 -79 -25 -81 0 -3 13
-5 29 -5 25 0 30 5 38 37 4 20 14 38 20 40 12 4 53 -65 53 -90 0 -8 14 -17 31
-21 46 -9 53 -8 41 7 -24 29 -71 125 -64 132 4 4 -8 4 -25 0 -38 -8 -40 -1
-19 49 13 32 13 34 -7 40 -37 10 -47 7 -47 -13z"/>
<path d="M3236 963 c8 -34 14 -42 14 -20 0 8 3 22 6 31 4 11 1 16 -10 16 -13
0 -15 -6 -10 -27z"/>
<path d="M3108 962 c-33 -4 -33 -3 -9 -44 11 -17 18 -35 15 -40 -3 -4 2 -8 10
-8 8 0 32 -20 52 -45 21 -24 41 -42 46 -39 19 12 7 63 -24 95 -17 19 -38 45
-47 59 -12 19 -23 24 -43 22z"/>
<path d="M2342 935 c-14 -16 -9 -18 26 -9 12 4 22 10 22 15 0 14 -34 10 -48
-6z"/>
<path d="M2963 933 c-23 -4 -31 -18 -15 -25 7 -2 110 -120 139 -157 6 -8 11 4
18 42 6 28 4 37 -7 37 -15 0 -88 82 -88 99 0 11 -7 12 -47 4z"/>
<path d="M2859 909 c35 -21 47 -20 38 6 -4 9 -19 15 -39 15 l-33 0 34 -21z"/>
<path d="M2536 895 c-15 -23 -15 -28 -1 -47 8 -13 15 -30 15 -39 0 -9 7 -29
14 -45 8 -15 13 -31 10 -36 -3 -4 11 -8 31 -8 20 0 35 4 33 8 -1 4 -19 49 -38
100 -19 50 -38 92 -41 92 -4 0 -14 -11 -23 -25z"/>
<path d="M2734 874 c3 -26 6 -71 6 -100 l0 -54 36 0 c32 0 35 2 28 23 -7 23
-11 61 -13 135 -1 40 -2 42 -32 42 l-32 0 7 -46z"/>
<path d="M1917 883 c22 -17 38 -16 52 1 10 12 5 14 -29 13 -34 -2 -38 -4 -23
-14z"/>
<path d="M2822 837 c-8 -10 -6 -16 9 -25 17 -11 19 -9 19 13 0 27 -12 32 -28
12z"/>
<path d="M2476 801 c-4 -7 -5 -15 -2 -18 9 -9 19 4 14 18 -4 11 -6 11 -12 0z"/>
<path d="M2442 758 c-16 -16 -15 -28 3 -28 8 0 15 9 15 20 0 23 -2 24 -18 8z"/>
<path d="M2885 749 l-30 -19 28 0 c16 0 30 7 34 15 8 23 1 24 -32 4z"/>
</g>
</svg>
